<svg width="64" height="64" viewBox="0 0 64 64" fill="none" xmlns="http://www.w3.org/2000/svg">
<path d="M64 14.4541V56.2424H0V14.4541L3.75 10.6667H60.25L64 14.4541Z" fill="#EFEFF4"/>
<path d="M64 14.4541V56.2424H32V10.6667H60.25L64 14.4541Z" fill="#DADAE5"/>
<path d="M0 0H64V15.5152H0V0Z" fill="#474F54"/>
<path d="M32 0H64V15.5152H32V0Z" fill="#32393F"/>
<path d="M7.75781 5.81818H11.4427V9.69696H7.75781V5.81818Z" fill="#FF637B"/>
<path d="M15.1279 5.81818H18.8128V9.69696H15.1279V5.81818Z" fill="#FF637B"/>
<path d="M22.4971 5.81818H26.1819V9.69696H22.4971V5.81818Z" fill="#FF637B"/>
<path d="M45.5754 42.2453V64H34.3546V60.2898H30.6143V64H19.3936V42.2453L30.7638 32.9697H33.8686L45.5754 42.2453Z" fill="#FF637B"/>
<path d="M11.6367 22.303H53.3337V26.1818H11.6367V22.303Z" fill="#DADAE5"/>
<path d="M32 22.303H52.3636V26.1818H32V22.303Z" fill="#C9C9D3"/>
<path d="M45.5758 42.2453V64H33.9394V60.2898H32V32.9697H33.4354L45.5758 42.2453Z" fill="#E63950"/>
<path d="M30.0605 45.5758H33.9393V49.4545H30.0605V45.5758Z" fill="#EFEFF4"/>
<path d="M32 45.5758H33.9394V49.4545H32V45.5758Z" fill="#DADAE5"/>
<path d="M50.4247 45.7793L47.9728 48.4848L32.4853 34.9586L16.9978 48.4848L14.5459 45.7793L32.4853 30.0606L50.4247 45.7793Z" fill="#676E74"/>
<path d="M32 30.0606L50.4242 45.7793L47.9061 48.4848L32 34.9586L32 30.0606Z" fill="#474F54"/>
</svg>
